<svg width="560" height="560" viewBox="0 0 560 560" fill="none" xmlns="http://www.w3.org/2000/svg">
<rect width="560" height="560" rx="124" fill="#0044FF"/>
<path d="M300.832 449.644L141.943 449.999C126.096 450.047 109.894 447.131 95.9142 441.559C63.2651 428.52 61.8649 392.578 74.0667 357.869L124.874 213.439C145.943 153.528 191.772 114.955 252.736 110H431.695C444.719 110 458.588 115.5 469.589 120.929C496.926 134.467 498.593 167.54 487.814 198.171L433.34 352.772C412.403 412.232 361.418 449.525 300.832 449.668V449.644ZM280.029 349.097L372.709 266.806L303.899 266.403C295.453 266.356 290.097 259.883 291.031 250.4C300.921 222.329 311.411 196.535 320.101 165.027L168.058 310.571L234.289 311.212C242.49 311.283 244.624 323.042 242.446 329.467L216.642 406.044L280.051 349.097H280.029Z" fill="url(#paint0_linear_7833_139)"/>
<defs>
<linearGradient id="paint0_linear_7833_139" x1="281.06" y1="280" x2="38.0045" y2="448.565" gradientUnits="userSpaceOnUse">
<stop offset="0.314983" stop-color="white"/>
<stop offset="1" stop-color="#0044FF"/>
</linearGradient>
</defs>
</svg>
