<svg width="3560" height="515" viewBox="0 0 3560 515" fill="none" xmlns="http://www.w3.org/2000/svg">
<path d="M962.965 308.197L998.078 215.196L1254.13 215.34L1144.77 514.211L745.222 514.032C707.814 514.032 675.14 501.012 652.222 473.933C638.987 447.393 635.831 415.472 646.878 386.169L738.336 144.217C767.746 66.388 841.164 15.8886 922.436 4.30392L992.303 0.143464L1331.7 0L1281.06 142.101L945.857 142.89C921.217 142.962 894.425 160.644 886.319 182.02L827.033 339.185C824.881 344.888 827.714 359.09 831.121 363.861C834.529 368.631 845.647 374.334 852.533 374.334L1033.01 374.656L1058.87 309.344L962.965 308.161V308.197Z" fill="white"/>
<path d="M1681.07 514.319L1560.64 513.243L1524.16 405.716L1407.17 513.314L1356.13 514.103L1240.32 514.247L1192.54 512.346L1472.51 256.334L1380.16 0L1590.3 0.53799L1628.39 107.203L1745.35 0.071732L1960.4 1.54224L1682.94 255.868L1771.81 512.633L1681.07 514.319Z" fill="white"/>
<path d="M2595.3 318.275L2575.68 372.791L2790.7 373.15L2739.73 513.386L2606.06 513.781L2362.46 513.673L2469.52 222.836L2550.14 0L2922.83 0.143464L2872.9 142.029L2659.79 142.245L2642.5 191.058L2824.2 191.453L2776.57 318.49L2595.3 318.275Z" fill="#0043FF"/>
<path d="M3062.17 513.422L2902.13 513.35L3041.04 142.711L2913.86 141.814L2965.9 0.17933L3376.42 0L3324.67 142.101L3197.63 142.28L3062.17 513.422Z" fill="#0043FF"/>
<path d="M2373.32 317.737L2345.53 401.305C2323.43 467.442 2263.93 512.31 2193.81 513.278L2113.44 514.39L1911.66 514.318L1850.18 513.135L2037.87 0L2384.48 0.609722C2406.82 0.645588 2426.23 13.0911 2440.68 26.4691C2450.76 46.1595 2454.09 68.7551 2446.49 90.0595L2416.36 174.201C2403.52 210.031 2373.04 232.483 2336.67 248.587C2365.93 260.423 2383.58 286.856 2373.32 317.737ZM2265.58 140.631C2264.11 137.08 2255.14 133.673 2250.16 133.673L2150.24 133.565L2127 196.653L2229.46 196.474C2257.22 196.438 2270.24 152.036 2265.58 140.666V140.631ZM2211.71 316.733C2210.17 313.254 2201.7 309.057 2196.68 309.057L2084.35 309.129L2061 376.665L2179.43 375.84C2199.09 375.696 2216.98 328.568 2211.68 316.733H2211.71Z" fill="#0043FF"/>
<g filter="url(#filter0_ii_7833_214)">
<path d="M377.345 513.816L120.939 514.354C95.3661 514.426 69.2198 510.015 46.66 501.586C-6.02713 481.86 -8.28668 427.487 11.4038 374.979L93.3935 156.483C127.394 65.85 201.35 7.49599 299.731 0H588.524C609.541 0 631.922 8.32091 649.675 16.5342C693.79 37.0137 696.48 87.0468 679.085 133.386L591.178 367.268C557.392 457.22 475.115 513.637 377.345 513.852V513.816ZM343.774 361.709L493.335 237.218L382.294 236.608C368.665 236.536 360.021 226.745 361.528 212.398C377.488 169.933 394.417 130.911 408.44 83.245L163.081 303.426L269.962 304.395C283.196 304.502 286.64 322.292 283.125 332.012L241.484 447.859L343.81 361.709H343.774Z" fill="url(#paint0_linear_7833_214)"/>
</g>
<path d="M3483.5 0H3501.7L3520.93 46.9091H3521.75L3540.98 0H3559.18V69.8182H3544.86V24.375H3544.28L3526.21 69.4773H3516.46L3498.4 24.2045H3497.82V69.8182H3483.5V0Z" fill="white"/>
<path d="M3416.71 12.1705V0H3474.05V12.1705H3452.68V69.8182H3438.09V12.1705H3416.71Z" fill="white"/>
<defs>
<filter id="filter0_ii_7833_214" x="0" y="0" width="701.068" height="526.355" filterUnits="userSpaceOnUse" color-interpolation-filters="sRGB">
<feFlood flood-opacity="0" result="BackgroundImageFix"/>
<feBlend mode="normal" in="SourceGraphic" in2="BackgroundImageFix" result="shape"/>
<feColorMatrix in="SourceAlpha" type="matrix" values="0 0 0 0 0 0 0 0 0 0 0 0 0 0 0 0 0 0 127 0" result="hardAlpha"/>
<feOffset dx="6" dy="6"/>
<feGaussianBlur stdDeviation="2"/>
<feComposite in2="hardAlpha" operator="arithmetic" k2="-1" k3="1"/>
<feColorMatrix type="matrix" values="0 0 0 0 0 0 0 0 0 0.429616 0 0 0 0 0.88886 0 0 0 1 0"/>
<feBlend mode="normal" in2="shape" result="effect1_innerShadow_7833_214"/>
<feColorMatrix in="SourceAlpha" type="matrix" values="0 0 0 0 0 0 0 0 0 0 0 0 0 0 0 0 0 0 127 0" result="hardAlpha"/>
<feOffset dx="12" dy="12"/>
<feGaussianBlur stdDeviation="12"/>
<feComposite in2="hardAlpha" operator="arithmetic" k2="-1" k3="1"/>
<feColorMatrix type="matrix" values="0 0 0 0 0 0 0 0 0 0.483333 0 0 0 0 1 0 0 0 1 0"/>
<feBlend mode="normal" in2="effect1_innerShadow_7833_214" result="effect2_innerShadow_7833_214"/>
</filter>
<linearGradient id="paint0_linear_7833_214" x1="22.3874" y1="-24.313" x2="344.305" y2="257" gradientUnits="userSpaceOnUse">
<stop stop-color="#4C7CFF"/>
<stop offset="1" stop-color="#0039D6"/>
</linearGradient>
</defs>
</svg>
